External Loads File
version=1
nRows=38
nColumns=13
Range=5.000000e-03-10 seconds
endheader
time 	forceRightX 	forceRightY 	forceRightZ 	pointRightX 	pointRightY 	pointRightZ 	forceLeftX 	forceLeftY 	forceLeftZ 	pointLeftX 	pointLeftY 	pointLeftZ 		
7.505000 -137.285846 876.103786 -0.000000 0.440838 0.247934 -0.111614 18.791315 -1.214941 -0.000000 0.174376 0.362407 -0.356222
7.510000 -112.185888 880.023942 -0.000000 0.437337 0.237853 -0.111521 13.049160 -4.227881 -0.000000 0.178706 0.372638 -0.356183
7.515000 -86.988850 878.272749 -0.000000 0.433299 0.228219 -0.111422 6.745572 -8.148119 -0.000000 0.183381 0.382523 -0.356149
7.520000 -60.757728 870.825906 -0.000000 0.428708 0.218838 -0.111259 -0.021028 -12.818805 -0.000000 0.188583 0.392264 -0.356062
7.525000 -34.333591 857.583416 -0.000000 0.423664 0.209757 -0.110994 -7.147135 -17.945438 -0.000000 0.194276 0.401827 -0.355960
7.530000 -8.906505 838.563256 -0.000000 0.418293 0.201119 -0.110917 -14.502631 -23.171758 -0.000000 0.200472 0.411056 -0.355668
7.535000 17.335400 813.850366 -0.000000 0.412398 0.193012 -0.110771 -22.018800 -28.040329 -0.000000 0.207757 0.420262 -0.355080
7.540000 38.861085 783.702288 -0.000000 0.406137 0.185214 -0.110627 -29.390259 -32.250676 -0.000000 0.214028 0.428725 -0.354745
7.545000 60.173378 748.275081 -0.000000 0.399349 0.177999 -0.110542 -36.682730 -35.213876 -0.000000 0.221205 0.436867 -0.354477
7.550000 79.031377 707.947304 -0.000000 0.392256 0.171297 -0.110465 -43.735278 -36.522737 -0.000000 0.228573 0.444266 -0.354347
7.555000 96.616208 662.906178 -0.000000 0.384790 0.165153 -0.110466 -50.538462 -35.664004 -0.000000 0.236512 0.451091 -0.354340
7.560000 111.841286 613.680049 -0.000000 0.376992 0.159562 -0.110450 -56.977655 -32.382862 -0.000000 0.244503 0.457117 -0.354506
7.565000 125.891211 560.671830 -0.000000 0.368826 0.154596 -0.110375 -63.036779 -26.358748 -0.000000 0.252958 0.462729 -0.354655
7.570000 138.281228 504.870110 -0.000000 0.360274 0.150400 -0.110398 -68.529748 -17.448782 -0.000000 0.261722 0.467516 -0.354945
7.575000 149.096662 447.550238 -0.000000 0.351339 0.146425 -0.110297 -73.193202 -5.501188 -0.000000 0.270506 0.471782 -0.355236
7.580000 158.333190 390.346336 -0.000000 0.342039 0.143837 -0.110216 -76.695606 9.526383 -0.000000 0.279500 0.475588 -0.355550
7.585000 166.005387 335.106508 -0.000000 0.332383 0.141616 -0.110152 -78.759837 27.557645 -0.000000 0.288293 0.478890 -0.355857
7.590000 172.417082 283.521152 -0.000000 0.322224 0.140065 -0.110161 -79.260739 48.559702 -0.000000 0.296811 0.481563 -0.356033
7.595000 177.528301 237.135974 -0.000000 0.312142 0.139308 -0.109990 -78.337714 72.538760 -0.000000 0.305202 0.483641 -0.356347
7.600000 182.078774 196.280617 -0.000000 0.300906 0.138698 -0.110123 -76.037152 99.955708 -0.000000 0.313148 0.485027 -0.356407
7.605000 185.038471 161.990783 -0.000000 0.290593 0.139052 -0.110298 -73.175875 130.771154 -0.000000 0.320954 0.485413 -0.356718
7.610000 186.782175 133.471918 -0.000000 0.280406 0.139995 -0.110532 -70.085687 165.400384 -0.000000 0.328596 0.485478 -0.357120
7.615000 186.990995 110.100314 -0.000000 0.270619 0.141559 -0.110612 -67.560017 203.736702 -0.000000 0.335806 0.484697 -0.357608
7.620000 185.763573 90.507351 -0.000000 0.261115 0.143715 -0.110691 -66.118188 245.440459 -0.000000 0.342787 0.483101 -0.358086
7.625000 183.148226 73.451440 -0.000000 0.251936 0.146402 -0.110757 -66.674987 289.624153 -0.000000 0.349396 0.480959 -0.358521
7.630000 179.493328 57.207378 -0.000000 0.242755 0.149820 -0.111073 -69.351024 335.197037 -0.000000 0.355899 0.477991 -0.358936
7.635000 174.926895 40.702370 -0.000000 0.233876 0.153836 -0.111224 -74.600823 380.662989 -0.000000 0.362477 0.474129 -0.359250
7.640000 169.490792 23.222992 -0.000000 0.225454 0.158546 -0.111142 -82.568085 424.440086 -0.000000 0.369203 0.469537 -0.359582
7.645000 163.075913 4.387384 -0.000000 0.217159 0.163988 -0.111217 -92.629929 465.134925 -0.000000 0.376070 0.464383 -0.359773
7.650000 155.437937 -15.168443 -0.000000 0.209451 0.169634 -0.111287 -105.155149 501.423361 -0.000000 0.382896 0.458488 -0.359990
7.655000 146.404109 -34.778618 -0.000000 0.202262 0.176095 -0.111377 -119.040545 532.728234 -0.000000 0.389702 0.452013 -0.360017
7.660000 136.024046 -53.095065 -0.000000 0.195703 0.182774 -0.111453 -134.370830 558.788551 -0.000000 0.396290 0.444899 -0.360185
7.665000 124.576216 -69.045797 -0.000000 0.189584 0.189695 -0.111595 -150.378925 580.116187 -0.000000 0.402644 0.437209 -0.360248
7.670000 112.458970 -81.895717 -0.000000 0.183946 0.197798 -0.111814 -165.730340 597.889328 -0.000000 0.408722 0.429175 -0.360212
7.675000 100.432670 -90.885841 -0.000000 0.178725 0.205799 -0.111910 -181.040881 613.063755 -0.000000 0.414519 0.420555 -0.360338
7.680000 89.058829 -95.957741 -0.000000 0.173977 0.214258 -0.112054 -195.470657 627.051744 -0.000000 0.419923 0.411450 -0.360432
7.685000 78.814894 -97.269549 -0.000000 0.169717 0.223060 -0.112164 -208.678399 641.010736 -0.000000 0.425110 0.401991 -0.360435
7.690000 70.024508 -95.163087 -0.000000 0.165959 0.232018 -0.112221 -220.771564 655.688113 -0.000000 0.429900 0.392188 -0.360384
